<svg width="18" height="18" viewBox="0 0 18 18" fill="none" xmlns="http://www.w3.org/2000/svg">
<path d="M9 4.5715C9.22685 4.5704 9.44936 4.5093 9.64496 4.3944C9.84056 4.27951 10.0023 4.11491 10.1137 3.91731C10.2251 3.71971 10.2823 3.49614 10.2794 3.26931C10.2765 3.04248 10.2136 2.82046 10.0971 2.62578L9 0.714355L7.90286 2.62578C7.78286 2.81436 7.71429 3.03721 7.71429 3.28578C7.71429 3.99721 8.29714 4.5715 9 4.5715ZM11.9571 11.0001L11.2714 10.3058L10.5771 10.9915C9.73714 11.8315 8.27143 11.8315 7.43143 10.9915L6.74571 10.3058L6.04286 10.9915C5.62286 11.4115 5.06571 11.6429 4.47429 11.6429C4.00286 11.6429 3.36 11.4972 3 11.2486V13.5715C3 14.5144 3.77143 15.2858 4.71429 15.2858H13.2857C13.7404 15.2858 14.1764 15.1052 14.4979 14.7837C14.8194 14.4622 15 14.0262 15 13.5715V11.2572C14.64 11.4972 13.9971 11.6429 13.5257 11.6429C12.9343 11.6429 12.3771 11.4115 11.9571 10.9915V11.0001ZM13.0714 6.71436H9.85714V5.00007H8.14286V6.71436H4.92857C3.85714 6.71436 3 7.5715 3 8.64293V9.41436C3 10.1086 3.78 10.6744 4.47429 10.6744C4.80857 10.6744 5.13429 10.5544 5.35714 10.3144L6.73714 8.94293L8.10857 10.3144C8.34811 10.5448 8.66759 10.6736 9 10.6736C9.33241 10.6736 9.65189 10.5448 9.89143 10.3144L11.2629 8.94293L12.6343 10.3144C12.8743 10.5544 13.1829 10.6829 13.5171 10.6829C14.2114 10.6829 15 10.1086 15 9.41436V8.64293C15 7.58007 14.1429 6.71436 13.0714 6.71436Z" fill="#9199A1"/>
</svg>
