<svg width="176" height="32" viewBox="0 0 176 32" fill="none" xmlns="http://www.w3.org/2000/svg">
<path d="M39.6354 19.8918L37.5593 19.7188C35.955 19.6323 35.3888 19.0269 35.3888 17.9891C35.3888 16.7783 36.3325 16.0864 38.2199 16.0864C39.4467 15.9999 40.6735 16.3459 41.6172 17.0378L42.844 15.9134C41.5297 15.0469 39.9308 14.6195 38.3143 14.7026C35.5775 14.7026 33.6901 15.9999 33.6901 18.0756C33.6901 19.9783 35.0113 21.0161 37.4649 21.1891L39.5411 21.3621C41.051 21.4486 41.6172 22.054 41.6172 23.0918C41.6172 24.4756 40.296 25.1675 38.2199 25.1675C36.71 25.254 35.2944 24.7351 34.2564 23.7837L33.0295 24.908C34.4451 26.1188 36.3325 26.6378 38.2199 26.5513C41.2397 26.5513 43.4102 25.254 43.4102 23.0053C43.4102 20.7567 41.9003 20.0648 39.6354 19.8918ZM54.5459 14.6161C52.4698 14.6161 51.2429 14.9621 50.1105 16.2594L51.3373 17.3837C51.6928 16.9205 52.1795 16.5549 52.7448 16.3263C53.3102 16.0977 53.9329 16.0148 54.5459 16.0864C56.9051 16.0864 57.7545 16.9513 57.7545 18.5945V19.7188H53.9797C51.1486 19.7188 49.6387 21.0161 49.6387 23.0918C49.6387 23.9567 49.9218 24.8215 50.5824 25.4269C51.3373 26.2053 52.3754 26.4648 54.1684 26.4648C55.4896 26.5513 56.9051 26.1188 57.8488 25.254V26.3783H59.7362V18.508C59.6419 15.9999 57.9432 14.6161 54.5459 14.6161ZM57.7545 22.3134C57.8488 23.0053 57.6601 23.7837 57.0939 24.3026C56.7034 24.6002 56.2514 24.8226 55.7649 24.9563C55.2785 25.0901 54.7676 25.1325 54.2628 25.081C52.281 25.081 51.3373 24.4756 51.3373 23.0918C51.3373 21.708 52.281 21.0161 54.1684 21.0161H57.7545V22.3134ZM66.9084 16.1729C68.0408 16.1729 69.1732 16.6053 69.8338 17.4702L71.0606 16.3459C70.5627 15.7818 69.9282 15.3317 69.2075 15.0315C68.4867 14.7312 67.6995 14.589 66.9084 14.6161C63.6998 14.6161 61.3405 16.6053 61.3405 20.5837C61.3405 24.5621 63.7942 26.5513 66.9084 26.5513C68.5127 26.6378 70.0226 25.9459 71.0606 24.8215L69.8338 23.6972C69.1732 24.5621 68.0408 24.9945 66.9084 24.9945C65.7759 25.081 64.6435 24.5621 63.9829 23.6972C63.3223 22.7459 63.0392 21.708 63.1336 20.5837C63.0392 19.4594 63.3223 18.4215 63.9829 17.4702C64.6435 16.6053 65.7759 16.0864 66.9084 16.1729ZM82.7625 14.7891H80.4976L74.7411 19.8918V9.59991H72.8537V26.3783H74.7411V22.1405L77.006 20.0648L81.2526 26.3783H83.5175L78.2328 18.9405L82.7625 14.7891ZM91.4446 14.6161C89.9346 14.6161 88.4247 15.0486 87.3866 16.0864C86.1598 17.2107 85.8767 18.681 85.8767 20.7567C85.8767 22.9188 86.1598 24.3026 87.3866 25.4269C88.4763 26.3861 89.9338 26.9141 91.4446 26.8972C92.9545 26.9837 94.4644 26.4648 95.5025 25.4269C96.7293 24.3026 97.0124 22.9188 97.0124 20.7567C97.0124 18.5945 96.7293 17.2972 95.5025 16.0864C94.9871 15.5813 94.3557 15.1873 93.6539 14.9331C92.9521 14.6788 92.1975 14.5706 91.4446 14.6161ZM93.0488 23.6972C92.1995 24.3891 90.8783 24.3891 90.029 23.6972C89.3684 23.0918 89.274 21.9675 89.274 20.7567C89.274 19.5459 89.3684 18.4215 90.029 17.8161C90.8783 17.1242 92.1995 17.1242 93.0488 17.8161C93.7094 18.4215 93.8038 19.5459 93.8038 20.7567C93.8038 22.054 93.7094 23.0918 93.0488 23.6972ZM105.883 14.7026L103.241 22.1405L100.598 14.7026H97.1068L102.014 26.8107H104.562L109.375 14.7026H105.883ZM114.943 14.7026C111.545 14.7026 109.186 16.8648 109.186 20.7567C109.186 25.6864 112.206 26.9837 115.32 26.9837C117.208 27.0702 119.095 26.3783 120.322 25.081L118.34 23.3513C117.585 24.0432 116.453 24.4756 115.32 24.3891C114.6 24.4144 113.896 24.1869 113.352 23.7529C112.809 23.319 112.466 22.7114 112.395 22.054V21.708H120.605V20.3242C120.699 17.0378 118.623 14.6161 114.943 14.6161V14.7026ZM112.395 19.6323L112.678 18.3351C113.055 17.5567 113.905 17.1242 114.848 17.1242C115.792 17.1242 116.641 17.5567 117.019 18.3351L117.302 19.6323H112.395ZM124.946 15.9134V14.7891H121.737V26.8972H125.04V19.6323C125.04 18.508 125.795 17.5567 127.022 17.3837H127.211C127.871 17.3837 128.532 17.6432 128.909 18.0756L131.363 15.8269C130.979 15.4495 130.51 15.1533 129.989 14.9591C129.467 14.7649 128.906 14.6774 128.343 14.7026C127.116 14.7026 125.89 15.0486 125.04 15.9134H124.946ZM132.118 13.4918V26.8107H135.421V17.2972H137.875V14.9621H135.421V13.6648C135.421 13.1459 135.704 12.6269 136.365 12.5405H137.78V9.94586H135.893C135.409 9.93436 134.928 10.0103 134.477 10.1692C134.026 10.3282 133.613 10.5671 133.262 10.8723C132.912 11.1775 132.63 11.543 132.434 11.948C132.238 12.3529 132.13 12.7894 132.118 13.2323V13.4918ZM151.275 14.6161C149.765 14.6161 148.255 15.0486 147.217 16.0864C145.99 17.2107 145.707 18.681 145.707 20.7567C145.707 22.9188 145.99 24.3026 147.217 25.4269C148.307 26.3861 149.764 26.9141 151.275 26.8972C152.785 26.9837 154.295 26.4648 155.333 25.4269C156.56 24.3026 156.843 22.9188 156.843 20.7567C156.843 18.5945 156.56 17.2972 155.333 16.0864C154.818 15.5813 154.186 15.1873 153.484 14.9331C152.783 14.6788 152.028 14.5706 151.275 14.6161ZM152.879 23.6972C152.03 24.3891 150.709 24.3891 149.86 23.6972C149.199 23.0918 149.105 21.9675 149.105 20.7567C149.105 19.5459 149.199 18.4215 149.86 17.8161C150.709 17.1242 152.03 17.1242 152.879 17.8161C153.54 18.4215 153.634 19.5459 153.634 20.7567C153.634 22.054 153.54 23.0918 152.879 23.6972ZM172.414 14.7026L170.243 22.1405L167.507 14.7026H165.148L162.505 22.2269L160.335 14.7891H156.843L160.901 26.8972H163.638L166.374 19.2864L169.111 26.8972H171.942L176 14.7891H172.414V14.7026ZM142.971 23.1783V10.0323H139.668V23.3513C139.642 23.783 139.71 24.2151 139.867 24.6228C140.024 25.0304 140.267 25.4057 140.583 25.7271C140.899 26.0485 141.28 26.3096 141.706 26.4955C142.132 26.6815 142.594 26.7886 143.065 26.8107H145.424V24.2161H144.197C143.631 24.3026 143.159 24.0432 142.971 23.5242V23.1783ZM49.733 15.0486H46.2413V11.2432H44.3539V23.2648C44.3539 24.9945 45.392 26.3783 47.5625 26.3783H48.8837V24.908H47.94C46.7132 24.908 46.2413 24.3026 46.2413 23.1783V16.5188H48.0344L49.733 15.0486Z" fill="#9BA2A9"/>
<path d="M24.5362 28.5406V20.7568H28.311V32H0V20.7568H3.7748V28.5406H24.5362Z" fill="#9BA2A9"/>
<path d="M21.7052 22.4865L22.4601 19.8919L7.26656 17.0378L6.60597 19.8919L21.7052 22.4865ZM8.68211 13.1459L22.8376 19.2L24.1588 16.6054L10.0033 10.5514L8.68211 13.1459ZM12.6456 6.74595L24.5363 15.9135L26.518 13.7514L14.533 4.58378L12.5513 6.74595H12.6456ZM20.2896 0L17.7416 1.72973L27.0843 13.2324L29.6322 11.5027L20.2896 0ZM6.60597 25.9459H21.7052V23.3514H6.60597V25.9459Z" fill="#9BA2A9"/>
</svg>
