<svg width="16" height="12" viewBox="0 0 16 12" fill="none" xmlns="http://www.w3.org/2000/svg">
<path d="M12.8689 0.522461H3.13106C1.7921 0.522461 0.696594 1.61797 0.696594 2.95692V9.04308C0.696594 10.382 1.7921 11.4775 3.13106 11.4775H12.8689C14.2079 11.4775 15.3034 10.382 15.3034 9.04308V2.95692C15.3034 1.61797 14.2079 0.522461 12.8689 0.522461ZM13.8427 4.05243L9.03463 7.27809C8.73032 7.46068 8.36515 7.5824 7.99998 7.5824C7.63481 7.5824 7.26964 7.46068 6.96533 7.27809L2.15727 4.05243C1.91383 3.86985 1.85296 3.50468 2.03555 3.20037C2.21813 2.95692 2.5833 2.89606 2.88761 3.07865L7.69567 6.30431C7.87826 6.42603 8.18256 6.42603 8.36515 6.30431L13.1732 3.07865C13.4775 2.89606 13.8427 2.95692 14.0253 3.26123C14.147 3.50468 14.0861 3.86985 13.8427 4.05243Z" fill="#9199A1"/>
</svg>
