<svg width="18" height="18" viewBox="0 0 18 18" fill="none" xmlns="http://www.w3.org/2000/svg">
<path d="M15.3616 11.158C14.781 10.5614 13.1304 9.44375 12.0486 9.44375C11.798 9.44375 11.5792 9.49943 11.4003 9.61477C10.8713 9.95284 10.4497 10.2153 10.2469 10.2153C10.1355 10.2153 10.0162 10.1159 9.75368 9.8892L9.70993 9.84943C8.98209 9.21705 8.82698 9.05398 8.54459 8.75966L8.473 8.68409C8.4213 8.63239 8.37755 8.58466 8.3338 8.54091C8.08721 8.28636 7.90823 8.10341 7.27584 7.3875L7.248 7.35568C6.94573 7.01364 6.74686 6.79091 6.73493 6.62784C6.723 6.46875 6.86221 6.21023 7.21618 5.72898C7.64573 5.1483 7.66164 4.43239 7.26789 3.60114C6.95368 2.94489 6.44061 2.31648 5.9872 1.76364L5.94743 1.71591C5.55766 1.23864 5.10425 1 4.59914 1C4.03834 1 3.573 1.30227 3.32641 1.46136C3.30652 1.4733 3.28664 1.4892 3.26675 1.50114C2.71391 1.85114 2.31221 2.33239 2.16107 2.82159C1.93436 3.55739 1.78323 4.51193 2.86902 6.49659C3.80766 8.21477 4.6588 9.36818 6.01107 10.7563C7.2838 12.0608 7.84857 12.4824 9.11334 13.3972C10.5213 14.4153 11.8736 15 12.8202 15C13.6991 15 14.3912 15 15.3775 13.8108C16.4116 12.5619 15.9821 11.7983 15.3616 11.158Z" fill="#9199A1"/>
</svg>
