<svg width="16" height="16" viewBox="0 0 16 16" fill="none" xmlns="http://www.w3.org/2000/svg">
<path d="M16 14.6675L11.4308 10.0625H11.1197C12.0979 8.81466 12.5629 7.24049 12.4198 5.66138C12.2767 4.08227 11.5363 2.61734 10.3497 1.56571C9.16317 0.514076 7.61995 -0.0449319 6.03519 0.00282626C4.45043 0.0505844 2.94367 0.701506 1.82256 1.82268C0.701462 2.94385 0.0505812 4.45071 0.00282608 6.03557C-0.0449291 7.62043 0.514043 9.16376 1.56561 10.3504C2.61717 11.5371 4.08201 12.2775 5.66102 12.4206C7.24003 12.5637 8.81411 12.0987 10.0618 11.1204V11.4315L14.6666 16.001L16 14.6675ZM10.6663 6.222C10.6663 7.40089 10.198 8.53149 9.3645 9.36509C8.53095 10.1987 7.40042 10.667 6.2216 10.667C5.04279 10.667 3.91225 10.1987 3.07871 9.36509C2.24516 8.53149 1.77688 7.40089 1.77688 6.222C1.77688 5.04311 2.24516 3.9125 3.07871 3.0789C3.91225 2.2453 5.04279 1.77699 6.2216 1.77699C7.40042 1.77699 8.53095 2.2453 9.3645 3.0789C10.198 3.9125 10.6663 5.04311 10.6663 6.222Z" fill="#AAAAAA"/>
</svg>
