<svg width="26" height="26" viewBox="0 0 26 26" fill="none" xmlns="http://www.w3.org/2000/svg">
<path d="M12.0001 0.699951C12.1877 0.487138 12.4186 0.316697 12.6772 0.199951C12.9358 0.0832056 13.2163 0.0228271 13.5001 0.0228271C13.7838 0.0228271 14.0643 0.0832056 14.3229 0.199951C14.5816 0.316697 14.8124 0.487138 15.0001 0.699951L23.5001 10.3C23.6371 10.4397 23.7301 10.6166 23.7676 10.8088C23.805 11.0009 23.7852 11.1998 23.7107 11.3808C23.6362 11.5618 23.5102 11.7169 23.3483 11.827C23.1864 11.9371 22.9958 11.9972 22.8001 12H4.20007C4.00434 11.9972 3.81372 11.9371 3.65185 11.827C3.48998 11.7169 3.36396 11.5618 3.28943 11.3808C3.2149 11.1998 3.19513 11.0009 3.23258 10.8088C3.27002 10.6166 3.36302 10.4397 3.50007 10.3L12.0001 0.699951Z" fill="#0A95FF"/>
<path opacity="0.5" d="M20.6001 16H6.40007L13.5001 24L20.5001 16H20.6001ZM15.0001 25.3C14.8124 25.5128 14.5816 25.6833 14.3229 25.8C14.0643 25.9167 13.7838 25.9771 13.5001 25.9771C13.2163 25.9771 12.9358 25.9167 12.6772 25.8C12.4186 25.6833 12.1877 25.5128 12.0001 25.3L3.50007 15.7C3.36302 15.5602 3.27002 15.3833 3.23258 15.1912C3.19513 14.999 3.2149 14.8002 3.28943 14.6192C3.36396 14.4381 3.48998 14.283 3.65185 14.1729C3.81372 14.0629 4.00434 14.0027 4.20007 14H22.8001C22.9958 14.0027 23.1864 14.0629 23.3483 14.1729C23.5102 14.283 23.6362 14.4381 23.7107 14.6192C23.7852 14.8002 23.805 14.999 23.7676 15.1912C23.7301 15.3833 23.6371 15.5602 23.5001 15.7L15.0001 25.3Z" fill="#0A95FF"/>
</svg>
